<svg xmlns="http://www.w3.org/2000/svg" xmlns:xlink="http://www.w3.org/1999/xlink" width="4000" zoomAndPan="magnify" viewBox="0 0 3000 2999.999989" height="4000" preserveAspectRatio="xMidYMid meet" version="1.0"><defs><g/><clipPath id="1041dab17f"><path d="M 375 0 L 2625 0 C 2832.105469 0 3000 167.894531 3000 375 L 3000 2625 C 3000 2832.105469 2832.105469 3000 2625 3000 L 375 3000 C 167.894531 3000 0 2832.105469 0 2625 L 0 375 C 0 167.894531 167.894531 0 375 0 Z M 375 0 " clip-rule="nonzero"/></clipPath><clipPath id="dda89af145"><path d="M 0 0 L 3000 0 L 3000 3000 L 0 3000 Z M 0 0 " clip-rule="nonzero"/></clipPath><clipPath id="25800981d7"><path d="M 375 0 L 2625 0 C 2832.105469 0 3000 167.894531 3000 375 L 3000 2625 C 3000 2832.105469 2832.105469 3000 2625 3000 L 375 3000 C 167.894531 3000 0 2832.105469 0 2625 L 0 375 C 0 167.894531 167.894531 0 375 0 Z M 375 0 " clip-rule="nonzero"/></clipPath><clipPath id="2e1e372506"><rect x="0" width="3000" y="0" height="3000"/></clipPath></defs><g clip-path="url(#1041dab17f)"><g transform="matrix(1, 0, 0, 1, 0, 0.000000000000341558)"><g clip-path="url(#2e1e372506)"><g clip-path="url(#dda89af145)"><g clip-path="url(#25800981d7)"><rect x="-660" width="4320" fill="#1e1e2e" height="4319.999984" y="-659.999998" fill-opacity="1"/></g></g></g></g></g><g fill="#ffffff" fill-opacity="1"><g transform="translate(302.538529, 2184.831217)"><g><path d="M 766.625 28.609375 C 642.664062 28.609375 530.148438 -2.378906 429.078125 -64.359375 C 328.003906 -126.335938 248.382812 -210.722656 190.21875 -317.515625 C 132.0625 -424.304688 102.984375 -544.453125 102.984375 -677.953125 C 102.984375 -811.441406 132.0625 -931.582031 190.21875 -1038.375 C 248.382812 -1145.164062 327.523438 -1230.023438 427.640625 -1292.953125 C 527.765625 -1355.890625 640.757812 -1387.359375 766.625 -1387.359375 C 869.601562 -1387.359375 961.613281 -1365.90625 1042.65625 -1323 C 1123.707031 -1280.09375 1189.023438 -1220.972656 1238.609375 -1145.640625 C 1288.191406 -1070.316406 1315.84375 -983.070312 1321.5625 -883.90625 L 1321.5625 -474.84375 C 1315.84375 -377.59375 1288.664062 -290.828125 1240.03125 -214.546875 C 1191.40625 -138.265625 1126.566406 -78.664062 1045.515625 -35.75 C 964.472656 7.15625 871.507812 28.609375 766.625 28.609375 Z M 809.53125 -214.546875 C 937.300781 -214.546875 1040.28125 -257.925781 1118.46875 -344.6875 C 1196.65625 -431.457031 1235.75 -542.546875 1235.75 -677.953125 C 1235.75 -771.390625 1218.109375 -852.910156 1182.828125 -922.515625 C 1147.546875 -992.128906 1097.484375 -1046.484375 1032.640625 -1085.578125 C 967.804688 -1124.671875 892.484375 -1144.21875 806.671875 -1144.21875 C 720.859375 -1144.21875 645.050781 -1124.191406 579.25 -1084.140625 C 513.457031 -1044.085938 461.96875 -989.257812 424.78125 -919.65625 C 387.601562 -850.050781 369.015625 -770.4375 369.015625 -680.8125 C 369.015625 -589.269531 387.601562 -508.695312 424.78125 -439.09375 C 461.96875 -369.488281 513.9375 -314.660156 580.6875 -274.609375 C 647.4375 -234.566406 723.71875 -214.546875 809.53125 -214.546875 Z M 1218.59375 0 L 1218.59375 -366.140625 L 1267.21875 -697.96875 L 1218.59375 -1026.9375 L 1218.59375 -1358.75 L 1478.890625 -1358.75 L 1478.890625 0 Z M 1218.59375 0 "/></g></g></g><g fill="#caa6f7" fill-opacity="1"><g transform="translate(1967.374429, 2184.831217)"><g><path d="M 414.78125 28.609375 C 361.382812 28.609375 317.046875 10.015625 281.765625 -27.171875 C 246.484375 -64.359375 228.84375 -108.695312 228.84375 -160.1875 C 228.84375 -213.582031 246.484375 -257.921875 281.765625 -293.203125 C 317.046875 -328.484375 361.382812 -346.125 414.78125 -346.125 C 468.175781 -346.125 512.515625 -328.484375 547.796875 -293.203125 C 583.078125 -257.921875 600.71875 -213.582031 600.71875 -160.1875 C 600.71875 -108.695312 583.078125 -64.359375 547.796875 -27.171875 C 512.515625 10.015625 468.175781 28.609375 414.78125 28.609375 Z M 414.78125 28.609375 "/></g></g></g></svg>